<svg width="166" height="55" viewBox="0 0 166 55" fill="none" xmlns="http://www.w3.org/2000/svg">
<path fill-rule="evenodd" clip-rule="evenodd" d="M0 15.7918V15.9296L27.95 30.635L56 15.8803V15.8433L27.95 1.0864L0 15.7918ZM10.077 15.8612L27.95 6.45672L45.827 15.8612L27.95 25.2646L10.076 15.8612H10.077ZM27.95 36.3469L0 21.8621V27.2201L27.95 41.7396L56 27.1697V21.8117L27.95 36.3469ZM27.95 47.2141L0 32.726V38.0829L27.95 52.6057L56 38.0347V32.6767L27.95 47.2141V47.2141Z" fill="white"/>
<mask id="mask0" mask-type="alpha" maskUnits="userSpaceOnUse" x="72" y="0" width="94" height="55">
<path d="M72 0H165.96V54.0841H72.001L72 0Z" fill="white"/>
</mask>
<g mask="url(#mask0)">
<path fill-rule="evenodd" clip-rule="evenodd" d="M159.546 27.0164C159.563 24.7034 158.789 22.4706 157.385 20.7747C156.724 19.9816 155.929 19.3445 155.045 18.901C154.149 18.4508 153.177 18.2213 152.195 18.2279C151.185 18.2279 150.234 18.4519 149.343 18.901C148.459 19.3444 147.664 19.9815 147.003 20.7747C145.599 22.4712 144.826 24.7043 144.843 27.0175C144.826 29.3304 145.599 31.563 147.003 33.2592C147.664 34.052 148.459 34.6887 149.343 35.1318C150.239 35.5825 151.212 35.8124 152.194 35.806C153.204 35.806 154.154 35.582 155.046 35.1318C155.929 34.6885 156.725 34.0518 157.385 33.2592C158.789 31.5628 159.562 29.3297 159.545 27.0164H159.546ZM165.961 27.0164C165.961 29.1802 165.604 31.1861 164.891 33.0341C164.206 34.8356 163.207 36.4655 161.951 37.8276C160.704 39.1772 159.241 40.2423 157.563 41.024C155.885 41.8069 154.095 42.1978 152.194 42.1978C150.294 42.1978 148.511 41.8069 146.848 41.024C145.223 40.2702 143.742 39.1771 142.482 37.803C141.229 36.4288 140.23 34.7915 139.542 32.9848C138.829 31.1368 138.472 29.1477 138.472 27.0164C138.472 24.9187 138.836 22.9464 139.564 21.0984C140.269 19.2882 141.274 17.6444 142.526 16.2545C143.781 14.8672 145.264 13.7651 146.893 13.0087C148.572 12.2229 150.375 11.8237 152.194 11.835C154.095 11.835 155.884 12.227 157.563 13.0087C159.241 13.7905 160.703 14.8567 161.951 16.2052C163.199 17.5536 164.179 19.1597 164.891 21.0234C165.604 22.8881 165.961 24.8862 165.961 27.0164V27.0164ZM136.244 41.2996C135.694 41.5831 135.119 41.8008 134.529 41.9492C133.891 42.1149 133.229 42.1978 132.547 42.1978C131.62 42.2015 130.698 42.0586 129.807 41.7733C128.962 41.509 128.178 41.0403 127.512 40.4002C126.859 39.7674 126.339 38.9442 125.952 37.9284C125.567 36.9126 125.374 35.6884 125.374 34.2582V-0.00100708H131.923V33.0094C131.923 34.2078 132.138 35.0321 132.569 35.4812C132.999 35.9304 133.512 36.1555 134.106 36.1555C134.848 36.1555 135.561 35.9057 136.244 35.4062V41.2996V41.2996ZM122.478 12.5327L110.894 46.8424C110.033 49.406 108.904 51.254 107.508 52.3863C106.112 53.5175 104.448 54.0831 102.518 54.0831C102.221 54.0831 101.895 54.0584 101.538 54.0092C101.192 53.9614 100.849 53.8862 100.513 53.784L98.375 47.0921C98.8756 47.3566 99.3981 47.5655 99.935 47.716C100.469 47.866 100.974 47.9411 101.449 47.9411C102.459 47.9411 103.379 47.6835 104.211 47.1672C105.043 46.652 105.681 45.6944 106.127 44.2955L107.018 41.3992L97.083 12.5339H104.078L110.003 31.1122L115.573 12.5339H122.478V12.5327ZM95.524 8.18944H78.772V17.4786H95.301V23.7707H78.771V41.4485H72.001V1.54793H95.525V8.18944H95.524Z" fill="white"/>
</g>
</svg>
